<svg width="42" height="42" viewBox="0 0 42 42" fill="none" xmlns="http://www.w3.org/2000/svg">
<path d="M11.585 18.8825C14.105 23.835 18.165 27.895 23.1175 30.415L26.9675 26.565C27.4575 26.075 28.14 25.935 28.7525 26.1275C30.7125 26.775 32.8125 27.125 35 27.125C35.4641 27.125 35.9093 27.3094 36.2374 27.6376C36.5656 27.9658 36.75 28.4109 36.75 28.875V35C36.75 35.4641 36.5656 35.9093 36.2374 36.2374C35.9093 36.5656 35.4641 36.75 35 36.75C27.1098 36.75 19.5428 33.6156 13.9636 28.0364C8.38437 22.4572 5.25 14.8902 5.25 7C5.25 6.53587 5.43437 6.09075 5.76256 5.76256C6.09075 5.43437 6.53587 5.25 7 5.25H13.125C13.5891 5.25 14.0342 5.43437 14.3624 5.76256C14.6906 6.09075 14.875 6.53587 14.875 7C14.875 9.1875 15.225 11.2875 15.8725 13.2475C16.065 13.86 15.925 14.5425 15.435 15.0325L11.585 18.8825Z" fill="black"/>
</svg>
