<svg width="12" height="14" viewBox="0 0 12 14" fill="none" xmlns="http://www.w3.org/2000/svg">
<path d="M11 5.8C11 9.7 6 13 6 13C6 13 1 9.7 1 5.8C1 4.52696 1.52678 3.30606 2.46447 2.40589C3.40215 1.50571 4.67392 1 6 1C7.32608 1 8.59785 1.50571 9.53553 2.40589C10.4732 3.30606 11 4.52696 11 5.8Z" stroke="black"/>
<path d="M7.875 5.8C7.875 6.27739 7.67746 6.73523 7.32583 7.07279C6.97419 7.41036 6.49728 7.6 6 7.6C5.50272 7.6 5.02581 7.41036 4.67417 7.07279C4.32254 6.73523 4.125 6.27739 4.125 5.8C4.125 5.32261 4.32254 4.86477 4.67417 4.52721C5.02581 4.18964 5.50272 4 6 4C6.49728 4 6.97419 4.18964 7.32583 4.52721C7.67746 4.86477 7.875 5.32261 7.875 5.8Z" stroke="black"/>
</svg>
