<svg width="12" height="10" viewBox="0 0 12 10" fill="none" xmlns="http://www.w3.org/2000/svg">
<path d="M1.2 10C0.87 10 0.5876 9.87771 0.3528 9.63312C0.118 9.38854 0.0004 9.09417 0 8.75V1.25C0 0.90625 0.1176 0.612083 0.3528 0.3675C0.588 0.122917 0.8704 0.000416667 1.2 0H10.8C11.13 0 11.4126 0.1225 11.6478 0.3675C11.883 0.6125 12.0004 0.906667 12 1.25V8.75C12 9.09375 11.8826 9.38812 11.6478 9.63312C11.413 9.87812 11.1304 10.0004 10.8 10H1.2ZM10.8 2.5L6.315 5.42187C6.265 5.45312 6.2126 5.47667 6.1578 5.4925C6.103 5.50833 6.0504 5.51604 6 5.51562C5.9496 5.51521 5.8972 5.5075 5.8428 5.4925C5.7884 5.4775 5.7358 5.45396 5.685 5.42187L1.2 2.5V8.75H10.8V2.5ZM6 4.375L10.8 1.25H1.2L6 4.375ZM1.2 2.65625V1.73437V1.75V1.7425V2.65625Z" fill="black"/>
</svg>
