<svg width="26" height="28" viewBox="0 0 26 28" fill="none" xmlns="http://www.w3.org/2000/svg">
<path d="M15.9314 6.04134C17.0302 6.27161 18.04 6.84882 18.8317 7.6991C19.6233 8.54937 20.1607 9.63404 20.3751 10.8143M15.9314 1.20801C18.2143 1.48041 20.3431 2.57847 21.9684 4.32189C23.5936 6.06531 24.6186 8.35048 24.8751 10.8022M23.7501 20.4447V24.0697C23.7514 24.4062 23.6872 24.7393 23.5617 25.0476C23.4362 25.356 23.2521 25.6328 23.0212 25.8603C22.7903 26.0878 22.5178 26.261 22.221 26.3688C21.9241 26.4766 21.6097 26.5166 21.2976 26.4863C17.8358 26.0823 14.5105 24.8118 11.5889 22.7768C8.87066 20.9216 6.56611 18.4463 4.83886 15.5268C2.93758 12.3745 1.75438 8.78546 1.38511 5.05051C1.35699 4.71636 1.39397 4.37959 1.49367 4.06164C1.59337 3.74368 1.75363 3.45151 1.96422 3.20372C2.17481 2.95593 2.43114 2.75795 2.71687 2.62239C3.00261 2.48683 3.31149 2.41666 3.62386 2.41634H6.99886C7.54483 2.41057 8.07412 2.61823 8.48809 3.00061C8.90206 3.38299 9.17244 3.91401 9.24886 4.49467C9.39131 5.65475 9.65549 6.7938 10.0364 7.89009C10.1877 8.32258 10.2205 8.79261 10.1308 9.24449C10.041 9.69636 9.83258 10.1111 9.53011 10.4397L8.10136 11.9743C9.70286 14.9994 12.0349 17.5041 14.8514 19.2243L16.2801 17.6897C16.586 17.3648 16.9722 17.1409 17.3929 17.0445C17.8136 16.9482 18.2512 16.9834 18.6539 17.1459C19.6745 17.555 20.735 17.8388 21.8151 17.9918C22.3616 18.0746 22.8607 18.3702 23.2175 18.8225C23.5742 19.2747 23.7638 19.8521 23.7501 20.4447Z" stroke="#FAEEEE" stroke-width="2" stroke-linecap="round" stroke-linejoin="round"/>
</svg>
