<svg width="12" height="13" viewBox="0 0 12 13" fill="none" xmlns="http://www.w3.org/2000/svg">
<path d="M3.56693 8.82922C2.31241 7.57227 1.34764 6.05643 0.740093 4.38772C0.405843 3.47538 0.712093 2.47321 1.39926 1.78605L1.82451 1.36138C1.93884 1.24682 2.07463 1.15594 2.22412 1.09393C2.37362 1.03192 2.53387 1 2.69572 1C2.85756 1 3.01782 1.03192 3.16731 1.09393C3.3168 1.15594 3.4526 1.24682 3.56693 1.36138L4.56268 2.35713C4.67723 2.47146 4.76812 2.60725 4.83013 2.75675C4.89214 2.90624 4.92406 3.0665 4.92406 3.22834C4.92406 3.39018 4.89214 3.55044 4.83013 3.69993C4.76812 3.84943 4.67723 3.98522 4.56268 4.09955L4.31768 4.34455C4.21961 4.44259 4.14182 4.559 4.08874 4.68711C4.03567 4.81523 4.00835 4.95254 4.00835 5.09121C4.00835 5.22989 4.03567 5.3672 4.08874 5.49532C4.14182 5.62343 4.21961 5.73984 4.31768 5.83788L6.55768 8.07847C6.65572 8.17653 6.77213 8.25432 6.90024 8.3074C7.02836 8.36047 7.16567 8.38779 7.30434 8.38779C7.44302 8.38779 7.58033 8.36047 7.70845 8.3074C7.83656 8.25432 7.95296 8.17653 8.05101 8.07847L8.29659 7.83347C8.41092 7.71891 8.54672 7.62802 8.69621 7.56601C8.8457 7.504 9.00596 7.47208 9.1678 7.47208C9.32965 7.47208 9.4899 7.504 9.63939 7.56601C9.78889 7.62802 9.92468 7.71891 10.039 7.83347L11.0348 8.82922C11.1493 8.94354 11.2402 9.07934 11.3022 9.22883C11.3642 9.37832 11.3961 9.53858 11.3961 9.70042C11.3961 9.86227 11.3642 10.0225 11.3022 10.172C11.2402 10.3215 11.1493 10.4573 11.0348 10.5716L10.6101 10.9963C9.92293 11.684 8.92076 11.9903 8.00843 11.656C6.33971 11.0485 4.82387 10.0837 3.56693 8.82922Z" stroke="black" stroke-linejoin="round"/>
</svg>
