<?xml version="1.0" encoding="utf-8"?>
<!-- Generator: Adobe Illustrator 18.0.0, SVG Export Plug-In . SVG Version: 6.00 Build 0)  -->
<!DOCTYPE svg PUBLIC "-//W3C//DTD SVG 1.1//EN" "http://www.w3.org/Graphics/SVG/1.1/DTD/svg11.dtd">
<svg version="1.1" id="Layer_1" xmlns="http://www.w3.org/2000/svg" xmlns:xlink="http://www.w3.org/1999/xlink" x="0px" y="0px"
	 viewBox="0 0 484 491" width="313.965504611" height="318.506328025" enable-background="new 0 0 484 491" xml:space="preserve">
<path stroke="#000000" stroke-miterlimit="10" d="M242,460.9c-119.8,0-216.6-97-216.5-217c0-119.3,97.4-216.4,217-216.3
	c119.5,0.1,216.3,97.4,216.2,217C458.5,364,361.5,460.9,242,460.9z M241.8,454.8c114.3,0.2,207.4-90.5,211.1-203.3
	c4-119.9-90.9-214.8-204.6-218.1C129.6,29.9,34.2,123.5,30.7,237.2C26.9,357.6,124,455.1,241.8,454.8z"/>
<path stroke="#000000" stroke-miterlimit="10" d="M421.5,414.8c-1.1-0.9-1.8-1.4-2.4-2c-3.7-3.4-7.3-6.9-11.1-10.1
	c-2.1-1.8-2.2-2.8-0.2-4.9c17.2-18.5,31.1-39.4,41.2-62.6c18.1-41.8,23.5-85.2,15.5-130.1c-5.8-32.8-18.2-63-37.5-90.2
	c-5.5-7.9-11.5-15.5-18.2-22.3c-2-2.1-1.9-3.1,0.3-4.9c3.8-3.2,7.5-6.6,11.1-10.1c1.4-1.4,2.4-1.4,3.6,0.1c0.7,0.9,1.5,1.6,2.3,2.5
	c1.6,1.7,4.2,3.3,4.5,5.3c0.3,1.9-2.7,3.2-4.3,4.6c-1.9,1.7-0.2,2.6,0.7,3.7c9.8,12.1,18.4,24.9,25.6,38.7
	c16.3,30.8,25.7,63.6,27.5,98.4c3.2,62.1-15.2,117.2-54.2,165.5c-1.9,2.4-1.2,3.4,0.6,5.1c3.6,3.3,3.6,3.4,0.3,7.1
	c-1.4,1.6-2.9,3.2-4.2,4.8C422.2,413.6,421.9,414.2,421.5,414.8z"/>
<path stroke="#000000" stroke-miterlimit="10" d="M84.5,82.4c-0.6-0.5-1.3-1-1.7-1.5c-3.8-4-7.5-8.1-11.3-12
	c-1.3-1.3-1.3-2.2,0.1-3.3c1-0.8,1.8-1.7,2.8-2.5c1.7-1.5,3.2-3.8,5.1-4.2c2.2-0.4,3.4,2.5,4.9,4c1.5,1.6,2.3,0.5,3.4-0.4
	c8.5-7.2,17.4-13.8,26.9-19.7C155.4,17.2,200,4.7,248.1,6c51.8,1.4,98.4,18.1,139.6,49.6c2.9,2.2,4.9,2.9,6.9-0.6
	c1.6-2.7,3.3-2.7,5.4-0.4c2.1,2.2,6.2,3.9,6.5,6.3c0.4,2.5-3.5,4.7-5.5,7.1c-2.4,2.9-4.6,7.3-7.6,7.9c-3.1,0.6-5.8-4-8.6-6.4
	c-38.6-31.6-83-48.6-132.7-50.8C199.6,16.3,151.7,31,109,61.8c-7.8,5.6-15.2,11.8-22.1,18.5C86.1,81,85.4,81.7,84.5,82.4z"/>
<path stroke="#000000" stroke-miterlimit="10" d="M85,435.3c-1.7-1.6-3.2-2.9-4.7-4.3c-5.1-4.7-5.1-4.7-0.4-10
	c2.4-2.7,5-5.3,7.2-8.1c1.6-2,2.7-1.8,4.4-0.2c19,17.2,40.4,30.7,64,40.3c27.1,11.1,55.2,17,84.6,17.1c56.7,0.1,106.4-18.4,149.6-55
	c1.8-1.5,2.8-1.7,4.4,0.3c3.2,4,6.6,7.8,10.1,11.6c1.2,1.4,1.5,2.4-0.2,3.6c-0.9,0.6-1.7,1.5-2.5,2.2c-1.8,1.5-3.4,4-5.4,4.3
	c-2,0.3-3.2-2.7-4.6-4.4c-1.8-2.2-2.8-0.3-4,0.6c-17.8,13.5-36.9,24.9-57.9,32.6c-84,30.8-162.2,19.6-234.2-33.6
	c-4.7-3.5-4.6-3.6-8.5,0.7C86.4,433.9,85.7,434.6,85,435.3z"/>
<path stroke="#000000" stroke-miterlimit="10" d="M60.3,411.5c-0.5-0.4-0.9-0.7-1.2-1.1c-0.8-0.9-1.7-1.9-2.5-2.8
	c-1.5-1.8-3.9-3.4-4.4-5.5c-0.6-2.5,2.6-3.5,4.2-5.1c1.8-1.8,0.2-2.7-0.7-3.7c-9-11.3-16.9-23.2-23.7-35.9
	c-44-81.9-36.6-181.3,18.9-255.8c2-2.6,2.4-4.3-0.7-6c-3.3-1.9-3.2-3.6-0.6-6.4c6.1-6.4,5.9-6.6,12.7-0.8c2.9,2.5,7.6,4.8,8.2,7.8
	c0.6,3.1-4.2,6-6.5,9c-29.6,38-45.9,81.1-47.8,129.2C14,295.3,33.3,348.8,73.5,394.7c2,2.3,2.3,3.5-0.2,5.5c-3.8,3-7.3,6.4-11,9.7
	C61.7,410.4,61,410.9,60.3,411.5z"/>
<path fill="#32459C" stroke="#000000" stroke-width="5" stroke-miterlimit="10" d="M241.4,449.8C128,449.6,36.2,357.4,36.4,244
	c0.2-113.1,92.3-204.7,205.4-204.6c113.6,0.2,205.3,92.3,204.9,205.7C446.5,358.4,354.5,450,241.4,449.8z"/>
<path fill="#FFFFFF" stroke="#000000" stroke-width="2" stroke-miterlimit="10" d="M298.1,158.2c0.6,1.7,1.2,3.3,2.2,5.9
	c0.5-7.2-1.4-13.2-2.2-19.3c0.6,1.6,1.3,3.2,2.2,5.4c0.6-4.6-1-8.3-0.7-12.2c2,5.8,1.7,11.8,1.8,17.8c0.1,56.1,0.1,112.2,0.1,168.3
	c0,6.6,0.1,13.2,0,19.9c0,2.3,0.8,3.1,3,3c4.9-0.1,9.8-0.2,14.6,0c3,0.2,3.8-0.9,3.8-3.8c-0.1-64.1,0.1-128.2-0.1-192.3
	c-0.1-21.3-7.3-40.2-21.4-56.2c-12.5-14.1-28.1-22.9-46.5-27c-3.2-0.7-4.5-0.3-4.2,3.4c0.4,4.8,0.2,9.7,0.1,14.6
	c-0.1,2.2,0.6,3.2,2.9,3.8c3.9,1,8.1,1.7,11.1,4.7c-2.7-1-5.3-2.1-8-3c-6.1-2-6.1-1.9-6,4.2c0,0.9,0.1,1.8,0,2.6
	c-0.3,2.4,0.6,3.6,3.1,4.1c2.9,0.6,5.8,1.3,8.3,3.1c-1.9-0.6-3.8-1.1-5.7-1.7c-5.7-1.7-5.7-1.7-5.7,4c0,1.2,0.1,2.5,0,3.7
	c-0.3,2.6,0.5,4,3.4,4.6c3.8,0.8,7.7,2,11,4.3c-1.8-0.6-3.5-1.1-5.3-1.8c-9.2-3.5-9.1-3.5-9.1,6c0,2.7,0.8,3.8,3.5,4.5
	c21.2,6.1,35.8,19.6,43.5,40.3c0.9,2.3,1.6,4.7,2.3,7.1C300.7,170.1,298.9,164.2,298.1,158.2z"/>
<path fill="#FFFFFF" stroke="#000000" stroke-width="2" stroke-miterlimit="10" d="M184.1,159.3c-1.2,5.7-2.5,11.4-2.4,17.7
	c1.1-1.1,1.1-2.1,1.4-3c6.4-21.3,19.9-35.8,40.8-43.4c7.7-2.8,7.6-2.7,7.6-10.8c0-3.4-1.3-3.9-4-2.7c4.2-1.5,4.3-4.9,4-8.5
	c0-0.5,0-1,0-1.5c0-4.8,0-4.8-4.7-3.4c4.9-1.5,5.2-5.3,4.7-9.4c0-0.1,0-0.2,0-0.4c0.4-3.2-0.8-4.4-3.9-3c0.7-1.9,4-0.8,3.9-3.8
	c-0.2-5.9,0-11.7,0-17.6c0-1.4-0.5-2.1-2-1.8c-1.1,0.2-2.2,0.4-3.3,0.6c-39.6,9-66.7,43-66.8,84c0,57.4,0,114.7,0,172.1
	c0,6.6,0.1,13.2,0,19.9c0,2.3,0.7,3.1,3,3c4.2-0.1,8.5,0,12.7,0c6.3,0,5.5,0.5,5.5-5.3c0-48,0-96,0-144c0-16.2,0-32.5,0.3-48.7
	c0.1-7.1,1-14.2,4.6-20.6c-1.9,6.9-3.9,13.8-3.8,22.1c2.1-4.4,2.2-8.4,4.6-11.6c-2.4,7.9-4.9,15.8-4.6,24.9
	C182.7,162.1,183.4,160.7,184.1,159.3z"/>
<path fill="#179232" stroke="#000000" stroke-width="2" stroke-miterlimit="10" d="M242.3,346.3c-8.9,0-17.8,0-26.7,0
	c-48.8,0-97.5,0-146.3,0c-1.5,0-3.5-0.7-4.3,0.6c-0.8,1.3,0.8,2.7,1.6,3.9c4.4,7.2,9,14.2,14.4,20.7
	c51.1,60.5,116.4,86.1,195.5,73.8c58.6-9.1,103.9-39.9,136.8-88.3c1.8-2.7,3.5-5.5,5.2-8.3c0.8-1.4,0.8-2.4-1.3-2.4
	c-1.1,0-2.3,0-3.4,0C356.6,346.3,299.5,346.3,242.3,346.3z"/>
<path fill="#EFF928" stroke="#000000" stroke-miterlimit="10" d="M117.3,224.1c1.9-0.3,3.1-0.4,4.3-0.6c8.3-1.6,14.9-5.3,17.6-14.1
	c2.9-9.6,1.6-19-0.7-28.4c-1.7-6.8-4.8-13-8.1-19.2c-1.2-2.3-1.3-3.9,1.1-5.8c5.8-4.7,9.4-10.7,7.9-18.6
	c-2.6-13.4-14.8-19.7-25.9-11.9c-1.8,1.3-3.2,3.1-5.5,3.6c-0.8-1,0.7-2.3-0.8-3.4c-3.6,3.3-7.2,6.7-11.2,10.4c4.1,0.6,7,2.6,11,0.4
	c5.3-3,10.6-5.9,15.6-9.4c1-0.7,1.8-1.7,3.2-0.4c5.8,5.6,7.6,16.4,1.6,22.6c-1.4,1.5-2.2,1.6-3-0.6c-1.1-2.9-2.7-5.6-3.7-8.5
	c-1.4-4.1-5.2-4.5-8.2-4.6c-2.5-0.1-2.3,3.5-3.2,5.6c-0.4,0.9-0.6,1.9-0.8,2.9c-2.6,10.1-2,20,1.4,29.8c1.1,3.2,5.4,5.6,9,5.5
	c-1.9-6.4-0.1-11.6,5-14.6c2.5,4.6,4.2,9.5,5.8,14.5c2.9,8.9,3.7,18.1,1.9,27.3c-0.9,4.5-3.5,8.4-8,10.2c-3.5,1.5-7.3,2.6-11,3.5
	c-10.2,2.4-20.3,4.7-29.8,9.2c-5.4,2.6-10.9,5.2-16,9.9c4.3,0.8,8,1.5,11.5,0c8.9-3.9,17.9-7.4,26.9-11c5.7-2.3,10.5-2,14.9,2.4
	c1.7,1.7,3.7,2.9,5.3,4.6c6.5,7,13.2,13.9,16.4,23.3c2,5.9-0.4,9.4-6.7,9.8c-5.2,0.4-9.7-1.5-14.4-3.4c-9.8-3.9-15.2-2.1-20.2,5.8
	c-1.2,1.9-2.1,4-3.1,5.9c-2.9,5.4-5.8,10.7-10.5,15.5c-0.1-1.2-0.1-1.7-0.1-2.2c-0.1-0.8,0.5-2-0.7-2.3c-1.2-0.3-1.6,0.9-2.1,1.7
	c-2.5,4.3-4.9,8.6-7.4,12.9c7,1.8,7.6,1.4,12.5-2.9c7.2-6.4,12.8-13.9,17-22.4c1.4-2.8,2.6-5.6,4.7-8c2.7-3,3.8-3,6.3,0.2
	c5.4,7.1,10,14.8,14.7,22.4c2.6,4.1,5.2,8.2,7,12.7c1.7,4.2,0.1,8.4-3.3,8.7c-6.5,0.7-12.7-0.6-18.3-3.8c-3.6-2.1-7.4-2.7-11.3-3.3
	c-1-0.2-2.6-0.4-2.7,1.1c-0.1,1.1,1.3,1.3,2.3,1.6c0.6,0.1,1.2,0.2,1.9,0.3c0.8,0.1,1.5,0.3,1.8,1.1c0.4,1-0.3,1.7-1,2.2
	c-1.9,1.4-4,2.4-6.5,2.5c-5.3,0.2-10.4-1.3-15.5-2.4c-3.4-0.7-6.8-1.3-11-2.2c2.2,3.3,4.9,3.2,7.2,3.8c9.2,2.6,18.5,5.2,28.3,4
	c2.6-0.3,4.9-1.1,6.6-3.1c1.5-1.7,2.9-1.7,4.9-0.9c5.9,2.4,12,3.3,18.3,2.5c6.8-0.8,9.8-5.2,7.3-11.5c-3-7.4-7.5-14-11.9-20.6
	c-3.2-4.7-6.4-9.4-9.7-14.1c4.9,1.1,9.5,1.3,14.1,1c7.8-0.5,13.7-7.6,10-14.4c-1.2-2.1-1.9-4.6-3.4-6.6
	C139,239.7,130.6,229.7,117.3,224.1z"/>
<path fill="#EFF928" stroke="#000000" stroke-miterlimit="10" d="M66.3,250.6c-7,2-13,5.3-19.3,7.8c-0.5,0.2-1.2,0.8-1.2,1.3
	c-0.1,0.9,1,0.9,1.6,1.2c2.8,1.6,5.6,0.7,8.4,0.3c6-0.9,12.1-1.5,18.2-2.2c11.6-1.3,23.3-2.6,34.9-4.1c7.8-1,15.6-1.7,23.5-1.5
	c0.7,0,1.5,0,2.1-1c-1.3-0.9-2.6-1.8-4.2-1.9c-4.6-0.4-9.2-1.3-13.8-1c-15.4,0.9-30.7,2.8-46,5.1c-2.4,0.4-4.8,0.4-7.6,0.6
	C64,253.3,65.7,252.9,66.3,250.6z"/>
<path fill="#EFF928" stroke="#000000" stroke-miterlimit="10" d="M66.6,153c-1.5,0.2-1,1.5-0.8,2.2c1.6,5.9,3.2,11.7,5,17.5
	c3.7,11.8,7.6,23.6,11.4,35.4c1,2.9,2,5.9,3.1,8.8c0.6,1.6,2.1,2.3,3.6,1.9c1.4-0.3,0.6-1.4,0.3-2.1c-6.8-20.1-13.8-40.1-19.3-60.5
	C69.5,154.6,68.6,153.3,66.6,153z"/>
<path fill="#EFF928" stroke="#000000" stroke-miterlimit="10" d="M113.6,199.7c-4.2,1.8-7.6,3.2-10.3,5.7c-1.2,1.1-2.3,2.4-1.9,4.2
	c0.4,1.4,1.6,1.7,2.9,1.8c1.9,0.2,3-0.6,3.6-2.4c1.3-4,4.4-5.9,8.3-7c1.6-0.4,3.1-1.2,4.6-1.8c-0.2-1.1-0.9-0.9-1.4-1.2
	c-4.3-1.9-9.1-1.4-13.5-2.6c-2.3-0.7-3.6-1.3-1.8-3.7c1.1-1.4,0.1-2-1.1-2.3c-2-0.7-3.5,0.3-4.3,2c-0.8,1.7-0.2,3.2,1.5,4
	c1.3,0.7,2.6,1.3,4.2,1.5C107.3,198.4,110,199,113.6,199.7z"/>
<path fill="#EFF928" stroke="#000000" stroke-miterlimit="10" d="M69.8,280.9c-3.8,1.9-7.7,3.7-10.4,7c-1,1.2-2,2.7-0.9,4
	c1.1,1.4,3,1,4.6,0.7c1.4-0.2,1.6-1.7,1.9-2.6c1.1-4,4.2-5.4,7.6-6.7c1.7-0.6,3.3-1.4,5.4-2.4c-4.8-2-9.3-2-13.7-2.3
	c-4.6-0.3-5.3-1.5-3.6-5.5c-2.6-1.9-4.9-1.5-5.8,1.7c-0.9,3,1.7,3.6,3.8,4.3C62.2,280.4,66,280.4,69.8,280.9z"/>
<path fill="#EFF928" stroke="#000000" stroke-miterlimit="10" d="M136.7,121.6c1.4,0.1,5.5-5.2,5.6-7c0.1-1-4.7-4.5-6.2-4.6
	c-0.9,0-5.5,6-5.1,7.3C131.8,120.2,135.1,120.1,136.7,121.6z"/>
<path fill="#EFF928" stroke="#000000" stroke-miterlimit="10" d="M94.2,158c-0.4-0.5-0.6-0.8-1-1.2c-3.9-3.8-6.7-3.4-9.4,1.2
	c-0.4,0.7-0.9,1.5-1.3,2.2c-0.4,0.7-0.6,1.4,0.2,1.9c2,1.3,4.6,4,6.4,3C91.3,163.8,92.4,160.6,94.2,158z"/>
<path fill="#EFF928" stroke="#000000" stroke-miterlimit="10" d="M72.3,225.9c-9.7-3.4-19.7-0.7-25.6,6.3c-0.7,0.8-2.4,1.8-1.2,3
	c0.9,0.8,2.6,0.8,3.9,0.1c0.5-0.3,0.9-0.8,1.3-1.3c2.4-3,5.5-4.8,9-6.3C63.6,225.9,67.6,227.1,72.3,225.9z"/>
<path fill="#EFF928" stroke="#000000" stroke-miterlimit="10" d="M105.8,293.1c3.5,2.5,7.2,4,11.1,5.1c2,0.6,3.9-0.3,4.3-2.4
	c0.6-2.8,0.3-5.4-2.9-6.9c-3-1.3-5.8-1.9-7.8,1.4C109.4,292.1,108.2,293.3,105.8,293.1z"/>
<path fill="#EFF928" stroke="#000000" stroke-miterlimit="10" d="M64.7,196.9c0.3,1.6,2.8,1.2,2.1,2.9c-0.6,1.6-2.3,1.1-3.6,1.1
	c-1.1,0-2.1-0.5-3.2-0.8c-3-1-5.6-3.2-8.9-3.1c4.5,3.3,9.6,5.7,15,6.9c2.3,0.5,4.8,0,5.5-2.5c0.7-2.5-1.8-3.1-3.6-3.9
	C67,196.9,66.1,196.2,64.7,196.9z"/>
<path fill="#FCFCFC" d="M363,393.7c-5-4.6-10.6-7.9-16.8-10.3c-1.9-0.7-2-3-2.6-4.8c-0.4-1.3,0.6-1.4,1.5-1.2c3.6,0.7,6.3,0.3,6-4.4
	c-0.1-1.1,0.6-1.2,1.4-1c1,0.2,1.8-0.2,2.2-1c1.7-4.7,2.8-0.8,3.5,0.4c1.4,2.4,1.6,4.8-1,6.9c-2.2,1.7-2.4,3.7,0.1,5.7
	C360.2,386.5,362.5,389.5,363,393.7z"/>
<path fill="#FFFFFF" d="M127.3,374.5c2.7-0.1,3.8,1.2,3.8,3.9c-0.1,6-7.9,14-13.9,14.1c-2.8,0-5.2-1-6.5-3.6
	c-1.2-2.5-0.2-4.9,1.6-6.8C116.4,377.8,121.3,374.9,127.3,374.5z M125.5,382.1c0.1-2.4-1.2-3.4-3.4-3.4c-3.2,0-6.5,2.3-6.3,4.6
	c0.1,2.8,1.8,4.3,4.6,4.4C123,387.9,125.4,385.3,125.5,382.1z"/>
<path fill="#FFFFFF" d="M102.6,383.7c1.1-4.4,2.7-7.3,4.6-10.1c0.8-1.2,1.4-1.9-0.4-3.1c-3.9-2.5-3.6-6,0.3-8.6
	c2.1-1.4,4.4-2.4,7-2.3c3.4,0.1,5.3,2.8,3.5,5.6c-3.1,4.9-6.6,9.6-8.9,15.1C107.9,382.1,105.3,382.4,102.6,383.7z M112.6,364.9
	c-0.1-1.3-0.9-1.7-2-1.5c-0.8,0.1-1.5,0.5-1.2,1.4c0.3,0.9,0.8,2,1.9,2C112.4,366.8,112.4,365.7,112.6,364.9z"/>
<path fill="#FCFCFC" d="M374.9,370.8c-1.6-4.9-3.2-8.8-3.8-13c-0.1-0.8-0.7-1.8,0.4-2.3c0.8-0.4,1.3,0.5,1.8,1
	c0.9,0.9,2,1.6,2.2,2.9c1.1,6.8,3.2,13.2,6.4,19.1c-0.7,0.8-1.2,0.8-1.6,0.5c-4.8-3.6-10.1-6.4-16-7.6c-2.8-0.6-3.6-3.4-4.6-5.5
	c-0.8-1.6,0.9-1.2,1.8-1C365.9,366,370.2,367.7,374.9,370.8z"/>
<path fill="#FFFFFF" d="M138.3,383c0,5.8-2.3,10.4-4.4,15.6c5.1-1.5,9.4-4.3,14.9-4.4c-1,2.5-2.2,4.4-4.4,4.9
	c-6.3,1.4-12.1,3.9-17.7,7.1c-0.3,0.1-0.7,0.1-1,0.1c-0.7-1.6,0.5-2.4,1.1-3.4c2-3.7,4.3-7.4,4.6-11.8
	C131.7,386.7,134.6,384.9,138.3,383z"/>
<path fill="#FCFCFC" d="M388.1,372.9c-2.5-1.5-4.1-3-4.4-5.4c-0.9-5.9-2.8-11.3-5.4-16.6c-0.3-0.5-0.6-1.1,0-1.8
	c1.5-0.2,2.4,1,3.5,1.8c3.6,2.5,7.5,4.4,11.8,5.4c1,0.2,2.1,0.3,2.8,0.9c1.7,1.4,3.8,3.6,3.1,5.5c-0.6,1.6-3.1-0.1-4.7-0.5
	c-3.4-0.9-6.4-2.6-9.9-4.6C386,362.8,388.9,367.2,388.1,372.9z"/>
<path fill="#FFFFFF" d="M89.7,370.5c2-2.5,3.4-4.3,4.8-6c2.4-3,3.9-6.4,5-10c0.9-2.9,3.5-3.3,5.7-4.2c0.8-0.4,1.3,0.2,1.3,1.2
	C106.5,357.4,97.3,368.5,89.7,370.5z"/>
<path fill="#FCFCFC" d="M353.3,402.1c-4.7-4.9-9.7-8.4-15.5-10.8c-2.3-0.9-2.3-3.7-3.1-5.7c-0.4-1,0.4-1.1,1.3-1
	c6.1,0.9,16.2,9.9,17.6,15.9C353.8,400.7,353.6,400.9,353.3,402.1z"/>
<path fill="#32459C" stroke="#000000" stroke-miterlimit="10" d="M114.8,160.5c-0.2-3.5-0.5-6.9,0.8-10.5
	C119.8,156.8,120.3,155.4,114.8,160.5z"/>
<g>
	<path fill="#EFF928" stroke="#000000" stroke-miterlimit="10" d="M363.1,200.3c-4.1-9.7-7.4-18.8-6.6-29c0.4-5.1,2-9.4,6.5-12.4
		c3-2,6.1-3.8,9.1-5.8c2.5-1.6,3.2-3.4,1.3-6.2c-2.8-4.1-6.5-6.8-10.9-8.7c-4.2-1.8-8.7-2.9-12.9-4.7c-2.3-1-5.2-1.9-5.3-5.1
		c-0.1-2.9,2.3-4.2,4.6-5.3c3.5-1.7,7.1-2.9,11.1-2.9c3.2,0,6.5-0.1,9.7-0.2c0.9,0,1.8-0.3,1.8-1.4c0-1.2-0.9-1.4-1.8-1.5
		c-1.4-0.1-2.7-0.1-4.1-0.2c-8.7-0.3-17.2,0.5-24.5,6c-5.9,4.5-5.4,8.9,1.3,12c0.4,0.2,1,0.3,1.4,0.5c6.2,2.7,13.1,4.1,18.3,8.8
		c4.8,4.3,4.7,6.2-1,9.1c-0.7,0.3-1.3,0.8-1.9,1.1c-7.4,3.1-10.7,8.9-11.2,16.6c-0.6,9.2,2.6,17.6,6,25.9c1.1,2.7,3.7,5.4,3.6,8
		c-0.1,2.7-3.9,4.1-5.8,6.3c-4,4.8-5.5,9.8-2.9,15.8c1.7,4,5.1,6,8.5,8c1.4,0.9,1.8,1.3,0.5,2.9c-2.7,3.2-3.9,7.1-4.6,11.2
		c-0.4,2.5,0.6,3.5,2.5,4.1c5,1.5,9.9,0.7,14.5-1.4c4.7-2.2,5.2-5.4,1.4-9c-3.7-3.4-6.7-7.4-11-10.3c-5.5-3.6-6.3-12.7-2.2-17.6
		c1.5-1.8,3-2.8,4.1,0.4c0.7,2.1,2.2,4,2.6,6.2c0.6,4,3.6,4.6,6.6,5.5c1.5,0.4,2.3,0.1,3-1.6c4.3-10.1,5.1-20.4,2.6-31.1
		c-1.1-4.7-4-7.3-9.2-8.3C370.2,192,367.2,196.1,363.1,200.3z"/>
	<path fill="#EFF928" stroke="#000000" stroke-miterlimit="10" d="M433.7,256.9c-3.4-1.2-6.4-2.9-10.3-2c-6.3,1.5-12.7,2.5-19.2,3.2
		c-15.5,1.7-31,3-46.5,4.7c-4.6,0.5-9.1,2.2-11.8,6.3c-2,3-2.9,7-7.9,6.1c0.7,2,1.9,2.4,3.1,2.6c1.3,0.1,1.7,0.8,1.7,1.9
		c0,7.8,4.1,14.2,6.9,21.1c3.6,8.5,9.4,16,11.3,25.4c0.5,2.3,3.7,2.5,6,2.8c2.5,0.4,1.6-1.9,1.8-2.9c2.8-12.5,6.5-24.7,9.8-37.1
		c3.3-12.5-5.7-21.7-18.3-18.9c-2.7,0.6-5.3,1.7-8.4,2.8c2.1-3.8,5.4-5.1,9-5.6c18.8-2.2,37.8-2.7,56.5-6.1
		C423,260.3,428.4,259.1,433.7,256.9z"/>
	<path fill="#EFF928" stroke="#000000" stroke-miterlimit="10" d="M397.2,165.2c-1.4,0.7-0.4,2.1-0.1,2.9
		c3.6,10.8,7.5,21.5,11.1,32.3c4,12,8.1,23.9,11.3,36.1c0.5,2,1,4.1,1.7,6.1c0.5,1.4,1.8,2.3,3.3,1.8c1.6-0.5,0.5-1.8,0.2-2.8
		c-0.7-2.4-1.4-4.7-2.1-7.1c-5.9-22.4-13.9-44.1-21.3-66.1C400.8,166.7,399.7,165.4,397.2,165.2z"/>
	<path fill="#EFF928" stroke="#000000" stroke-miterlimit="10" d="M407.3,326.8c-1.3-4.9-2.4-9.4-3.7-13.9
		c-3.2-10.6-6.4-21.1-9.6-31.7c-0.8-2.6-1.8-5.1-2.8-7.7c-0.6-1.6-2.1-2-3.4-1.6c-1.8,0.6-0.3,1.9,0,2.7
		c4.7,15.5,10.3,30.8,14.3,46.6C402.7,323.7,403.5,326.3,407.3,326.8z"/>
	<path fill="#EFF928" stroke="#000000" stroke-miterlimit="10" d="M391.3,121.5c-0.1-0.5-0.1-0.8-0.3-0.9c-2-1.3-3.8-3-6.1-3.4
		c-1.9-0.3-1.8,2-2.8,3c-0.6,0.6-0.9,1.5-1.4,2.2c-1.5,2.1-1.2,3.2,1.3,4.4c4.5,2.1,4.4,2.3,1.8,6.6c-0.3,0.4-0.4,0.9-0.7,1.3
		c-0.6,1-2.2,2.2-0.6,3.1c2,1.3,4.6,4,6.4,2.9c2.2-1.3,3.7-4.4,4.6-7c0.6-1.8-2.1-2.3-3.5-3c-2.5-1.3-3-2.6-1.2-4.9
		C389.8,124.5,390.5,122.9,391.3,121.5z"/>
	<path fill="#EFF928" stroke="#000000" stroke-miterlimit="10" d="M366.5,124.5c3.6,9.2,12.9,20.6,21.2,26.9
		c0.8,0.6,2.3,0.8,1.5,2.4c-0.3,0.7-2.2,1.2-0.6,2.3c0.9,0.6,2.4,0.6,3.2-0.1c1.6-1.4,3.1-1.1,4.8-0.3c1.5,0.7,3.2,0.8,4.8,0.4
		c3.3-0.8,4-3.2,1.9-5.9c-3.4-4.6-7.2-4.8-10.8-0.3c-1.3,1.7-2.2,1.6-3.5,0.2c-3.4-3.5-6.9-6.8-10.1-10.5
		C374.7,134.6,370.7,129.5,366.5,124.5z"/>
	<path fill="#EFF928" stroke="#000000" stroke-miterlimit="10" d="M380.9,234.6c0.2,1.1,0.9,1.1,1.4,1.3c4.2,1.6,8.7,1.9,13,3
		c1.5,0.4,3.8,0.5,2.5,3.2c-0.4,0.8-2.3,1.6-0.5,2.6c1.2,0.7,2.6,1.3,4.2,0.1c2.4-2,1.9-4.3-1.2-6c-3.6-1.9-7.8-1.2-11.4-3.2
		c0.6-1,1.5-1,2.3-1.2c3.4-1.2,6.7-2.6,8.9-5.7c0.8-1.1,1.9-2.3,0.1-3.4c-1.4-0.9-3-2.1-4.7-0.5c-0.8,0.8-1.6,1.7-1.9,2.7
		c-1.1,3.5-4,4.3-6.9,5.3C384.7,233.4,382.8,234,380.9,234.6z"/>
	<path fill="#EFF928" stroke="#000000" stroke-miterlimit="10" d="M334.8,213.8c1.8,5,3.4,9.6,5,14.2c2.1,6.1,4.2,12.2,6.2,18.3
		c0.7,2,2.6,2.2,3.9,1.9c1.1-0.3,0.2-1.9-0.1-2.9c-3.2-9.1-6.6-18.1-9.5-27.3C339.4,215.1,337.9,214.2,334.8,213.8z"/>
	<path fill="#EFF928" stroke="#000000" stroke-miterlimit="10" d="M374.8,317.1c0.3,1.1,1.1,1,1.8,1.3c3.6,1.6,7.6,1.2,11.2,2.6
		c1.7,0.6,4.7,0.6,1.7,3.6c-0.7,0.7-0.1,1.3,0.6,1.8c1.7,1.2,2.9,0.7,4.1-0.8c1.6-1.9,0.7-3.3-0.9-4.3c-3.4-2.1-7.6-2.2-12.4-3.7
		c4.9-1.1,8.3-2.7,11-5.6c0.9-1,1.6-2.5,0.4-3.6c-1.3-1.2-3-1.3-4.4-0.2c-0.7,0.5-1.2,1.3-1.5,2.1c-1.2,3-3.6,4.2-6.5,5
		C378.2,315.8,376.5,316.5,374.8,317.1z"/>
	<path fill="#EFF928" stroke="#000000" stroke-miterlimit="10" d="M373.6,172.1c3.5-1.5,7-2.9,9.6-5.6c0.9-1,2.6-2.5,0.8-3.8
		c-1.5-1.1-3.7-1.7-5.2,0.4c-0.4,0.5-0.9,1-1.1,1.5c-0.5,2.4-2.4,3.1-4.3,4.1c-2.2,1.2-5.2,0.4-6.8,2.9c0.7,1,1.6,1,2.4,1.2
		c3.7,0.8,7.5,1.7,11.2,2.6c1.5,0.3,2.2,1.1,1.4,2.7c-0.3,0.7-2.1,1.3-0.3,2.2c1.2,0.6,2.3,1.4,3.7,0.1c2-1.8,2-3.5-0.5-5
		C381.3,173.3,377.5,172.9,373.6,172.1z"/>
	<path fill="#EFF928" stroke="#000000" stroke-miterlimit="10" d="M403.6,281c9.7,2.9,18.3,1.9,24.9-6.2c0.6-0.7,2.2-1.6,0.9-2.7
		c-1-0.9-2.6-1-3.8-0.2c-0.7,0.4-1.1,1.3-1.7,1.9c-3.6,4-8,6.5-13.5,6.8C408.1,280.6,405.9,280.8,403.6,281z"/>
	<path fill="#EFF928" stroke="#000000" stroke-miterlimit="10" d="M344.1,311.4c-0.6,0-5.7,6.9-5.3,7.6c1.3,2.5,4.1,2.9,6.3,4
		c0.8,0.4,5.3-5.7,5.3-7C350.6,315.2,345.4,311.5,344.1,311.4z"/>
	<path fill="#EFF928" stroke="#000000" stroke-miterlimit="10" d="M333.9,138.1c-0.2,5.8,1.1,10,4.2,13.6c1.9,2.2,3.9,4.2,7,4.6
		c2.1,0.3,4.2-0.5,3.4-3c-0.8-2.6-2.3-5.1-5.2-6.1c-1.1,1.7,2.6,2.9,0.1,4.2c-2.3,1.2-3.6-0.6-4.6-2.5c-0.2-0.3-0.3-0.7-0.4-1
		C337.1,145,335.7,142,333.9,138.1z"/>
	<path fill="#EFF928" stroke="#000000" stroke-miterlimit="10" d="M420.9,301.8c-3.3-2.9-7.5-4.4-11.6-5.8c-2.5-0.9-5.4-0.7-6.1,1.7
		c-0.8,3,2.4,3.4,4.6,4.1c0.4,0.1,0.7,0.1,0.9-0.5c0.1-1-1.9-1.1-1.2-2.3c0.6-1,1.8-0.6,2.8-0.6
		C414.2,298.5,417.1,301.4,420.9,301.8z"/>
	<path fill="#EFF928" stroke="#000000" stroke-miterlimit="10" d="M406.4,204c0.2-0.3,0.3-0.6,0.5-0.8c-3.6-2.1-7.1-4.1-11.3-5.2
		c-2.6-0.7-5.9-1.6-6.8,1.5c-0.8,3.2,2.9,3.3,5.1,4.1c0.1,0,0.3-0.2,0.5-0.4c-0.1-1.1-2.4-1.1-1.5-2.5c0.7-1.1,2-0.8,3.1-0.7
		c0.8,0.1,1.7,0.4,2.5,0.7C401.2,201.7,403.8,202.8,406.4,204z"/>
	<path fill="#EFF928" stroke="#000000" stroke-miterlimit="10" d="M418.4,190c0.1-1.2-2.7-1.2-1.4-2.7c1-1.2,2.5-1,3.8-0.6
		c0.5,0.1,0.9,0.5,1.4,0.6c2.8,0.7,5.1,2.8,8.2,2.8c-3.6-2.6-7.3-4.7-11.7-5.6c-2.4-0.5-5.5-1.1-6.1,1.6c-0.7,3,2.9,3.3,5.1,4.2
		C417.8,190.4,418,190.1,418.4,190z"/>
	<path fill="#32459C" stroke="#000000" stroke-miterlimit="10" d="M369.4,213.9c-1.7-2.9-4.7-5.7-0.7-8.7c0.5-0.4,1.1-1,1.5-0.9
		c0.9,0.3,0.7,1.2,0.6,1.9C370.3,208.8,369.8,211.3,369.4,213.9z"/>
	<path fill="#32459C" stroke="#000000" stroke-miterlimit="10" d="M362,248.3c0.2-1.6,0.3-3,1.3-4c0.5-0.6,0.4-2.5,1.8-1.4
		c1.1,0.7,2.1,2,0.8,3.4C365,247.3,364.1,248.7,362,248.3z"/>
	<path fill="#32459C" stroke="#000000" stroke-miterlimit="10" d="M363.9,316.3c-4.3-10.9-10.4-20.9-11.8-32.5
		c-0.4-3.2,0.2-4.5,3.6-5c3.1-0.5,6.2-1.7,9.1-3c2.8-1.2,4.2,0.2,5.5,2.2c1.6,2.7,2.2,5.7,1.6,8.7c-1.9,9.6-4.3,19.1-7.2,28.5
		C364.5,315.4,364.3,315.7,363.9,316.3z"/>
	<path fill="#32459C" stroke="#000000" stroke-miterlimit="10" d="M396.2,153.3c0.3,0-1,0.2-0.6-0.7c0.6-1.5,1.6-3.2,3.4-3.5
		c1.1-0.2,1.2,1.1,1.2,1.9C400.2,152.8,398.9,153.5,396.2,153.3z"/>
</g>
<path fill="#32459C" stroke="#000000" stroke-miterlimit="10" d="M116.5,289.9c1,2.1,2.8,4,0.4,6c-1.2,1-3.4,0.3-3.5-0.6
	C113,293.1,114.7,291.4,116.5,289.9z"/>
<g>
	<path d="M238.2,357.6c2.5-1.9,5.4-3.2,8.6-4c9.6-2.3,19-2.3,28.3,1c4.1,1.5,8.3,2.9,12.6,4c6.2,1.7,12.6,2.1,19.1,2.2
		c0.6,0,1.1,0,1.7,0c0.1,0,0.1,0,0.3,0.1c0.9,22.6,1.8,45.2,2.7,67.9c0.1,1.4-1.1,2.5-2.4,2.4c-0.9,0-1.9-0.1-2.8-0.1
		c-7.1-0.3-14.1-0.6-21.2-1c-7.3-0.3-14.5-0.7-21.8-1c-8.4-0.4-16.8-0.9-25.2-0.7c-7.2,0.2-14.5,0.5-21.7,0.7
		c-6.3,0.2-12.6,0.4-18.9,0.7c-8.3,0.3-16.5,0.6-24.8,0.8c0,0,0,0,0,0c-1.3,0-2.4-1-2.4-2.3c0-0.4,0-0.8,0-1.2
		c-0.1-9.4-0.2-18.8-0.3-28.2c-0.1-11.6-0.2-23.1-0.4-34.7c0-0.3,0-0.7,0-1c0-1,0.3-1.3,1.6-1.3c2.5,0,5.1,0,7.6-0.1
		c8.2-0.3,16-2,23.3-4.9c2.6-1,5.2-2,7.7-3.1c5.8-2.4,11.8-2.5,17.9-0.8c3.5,1,6.7,2.3,9.8,3.9C237.6,357.3,237.9,357.4,238.2,357.6
		z M303.8,422v-54.8c0-1.2-1-2.3-2.2-2.3c-0.9,0-1.7-0.1-2.5-0.2c-5.5-0.4-10.7-1.7-15.8-3.3c-5-1.6-9.8-3.4-14.8-5
		c-4.1-1.3-8.4-2.1-12.9-1.7c-5.5,0.5-10,2.3-13.3,5.8c-0.3,0.3-0.5,0.8-0.5,1.3c0,18.3,0,36.6,0,54.9c0,0.2,0,0.4,0.1,0.6
		c1.3-0.4,2.6-0.9,3.8-1.3c2.8-0.8,5.8-1.2,8.8-1.5c3.4-0.3,6.7-0.3,10,0.1c3.8,0.5,7.2,1.7,10.6,3.1c7.2,2.8,14.6,5.1,22.6,6.1
		c1.2,0.2,2.3,0.3,3.5,0.4C302.6,424.5,303.8,423.4,303.8,422z M236.2,418.5c0-0.2,0-0.4,0-0.6c0-18.4,0-36.7,0-55.1
		c0-0.3-0.2-0.7-0.4-1c-2.3-2.6-5.5-4.4-9.4-5.3c-5.2-1.3-10.4-0.9-15.4,0.6c-5.3,1.6-10.5,3.5-15.8,5.2c-6.5,2.1-13.1,3.6-20.2,3.7
		c-0.3,0-0.5,0-0.8,0.1c0,19.9,0,39.7,0,59.5c0.3,0,0.4,0,0.6,0c5.9-0.6,11.8-1.4,17.4-3.2c4.6-1.4,9-3.1,13.5-4.7
		c3.1-1.1,6.3-2,9.7-2.2C222.6,415.2,229.5,415.9,236.2,418.5z"/>
	<path fill="#FFFFFF" d="M303.8,422c0,1.4-1.2,2.5-2.6,2.3c-1.2-0.1-2.3-0.3-3.5-0.4c-8-1.1-15.4-3.3-22.6-6.1
		c-3.4-1.3-6.8-2.6-10.6-3.1c-3.3-0.4-6.7-0.4-10-0.1c-3,0.3-6,0.6-8.8,1.5c-1.3,0.4-2.5,0.8-3.8,1.3c0-0.2-0.1-0.4-0.1-0.6
		c0-18.3,0-36.6,0-54.9c0-0.4,0.2-0.9,0.5-1.3c3.3-3.5,7.8-5.4,13.3-5.8c4.5-0.4,8.8,0.4,12.9,1.7c5,1.6,9.9,3.3,14.8,5
		c5.1,1.7,10.3,2.9,15.8,3.3c0.8,0.1,1.7,0.1,2.5,0.2c1.2,0.1,2.2,1.1,2.2,2.3V422z"/>
	<path fill="#FFFFFF" d="M236.2,418.5c-6.6-2.7-13.6-3.3-20.8-2.9c-3.4,0.2-6.6,1.1-9.7,2.2c-4.5,1.6-9,3.2-13.5,4.7
		c-5.6,1.7-11.4,2.6-17.4,3.2c-0.2,0-0.4,0-0.6,0c0-19.8,0-39.6,0-59.5c0.3,0,0.5-0.1,0.8-0.1c7.1-0.1,13.7-1.6,20.2-3.7
		c5.3-1.7,10.5-3.6,15.8-5.2c5-1.5,10.2-1.9,15.4-0.6c3.9,0.9,7.1,2.7,9.4,5.3c0.2,0.3,0.4,0.7,0.4,1c0,18.4,0,36.7,0,55.1
		C236.2,418.1,236.2,418.3,236.2,418.5z"/>
</g>
<g>
	<path d="M284.1,395.4c0.8,4.2-0.6,7.2-4.8,8.4c-2.3,0.6-4.8,0.8-6.3-1.3c-2-2.8-1.4-5.8,0.3-9.1c0.1,0.7,0.2,1,0.1,1.2
		c-0.6,2.1-1.2,4.2,0.9,5.7c2,1.4,4.2,0.8,6.3,0c2.1-0.8,2.9-2,2.2-4.3c-1.5-5.4-2.9-10.8-4.3-16.2c-0.3-1.3-1-2.7,0.3-4.2
		c1.4,4.6,2.7,9.1,4.1,13.5c1.1,3.4,3.5,4.6,6.6,3.6c1.2-0.4,1.4-0.6,2.1-2.4c-0.1-0.1-0.4-0.4-0.4-0.4c-1.3,1.2-2.6,2.5-4.3,0.5
		c-1.2-1.4-0.6-5.1,0.8-6.1c1.2-0.8,2.1,0,2.9,0.7c2.1,1.9,2.9,5.8,1.7,8.2C291.1,395.6,289,396.2,284.1,395.4z"/>
	<path d="M245,390.8c0.7,4.1,1.9,5.2,5.5,5.1c3.9-0.1,7.5-1.5,10.9-3.4c1.6-0.9,2.1-1.9,0.3-3.2c-1.2-0.9-1.1-2-0.8-3.2
		c4.1,2,4.7,6.3,1.2,8.7c-3.5,2.4-7.4,3.9-11.6,4.1C245.4,399,243.4,396.4,245,390.8z"/>
	<path d="M291.1,400.3c4.9-1.3,8.4-3.8,9.9-9.5c-1.8,1.2-3.3,2-4.3,0.2c-1-1.7-0.8-3.4,0.3-5c0.7-1,1.8-0.7,2.6,0
		c1.4,1.2,2.1,2.8,2.2,4.6C302.3,396.9,297.5,401.4,291.1,400.3z"/>
	<path d="M259,400.2c4,0.3,7-1.2,9.4-4.3c1.3-1.7,1.9-3.1,0.1-4.8c-0.9-0.9-1.7-2-0.8-3.5c3.7,3,4.1,6.7,1.3,10.8
		C266.2,402.5,263.5,403,259,400.2z"/>
	<path d="M272.5,386.1c0.9-0.6,1.7-1.3,2.7-1.9c-1.4-1.4-2.5,0-3.7-0.4c-0.2-2.7,1.7-3.1,3.7-3.2c0.9-0.1,2-0.1,1.8,1.2
		C276.6,384.2,275.7,386.4,272.5,386.1z"/>
	<path d="M262.4,383.2c1.3-4.1,5.6-4.3,8.4-6.3C269.3,380.8,265.3,381.2,262.4,383.2z"/>
	<path d="M288.1,381.8c-1.5-0.7-1.9,0.1-2.3,1c-0.5,1.1-1.4,0.8-2.2,0.4c-0.7-0.3-0.8-0.9-0.6-1.6c0.3-0.9,0.6-1.7,1.8-1.2
		c0.9,0.4,1.7,0.6,2-0.7c0.4-1.3,1.2-1.3,2.3-0.8c0.9,0.4,1.1,0.9,0.8,1.8C289.6,381.9,288.9,382.3,288.1,381.8z"/>
	<path d="M249.4,383.7c2.5,2,4-0.5,5.8-0.7c1.1,3.6-2.4,3.3-4,3.8C249.6,387.4,249.4,385.5,249.4,383.7z"/>
	<path d="M251.1,402.4c-0.9,2.7-3.5,3.2-5.8,4.3C246.2,403.9,249,403.5,251.1,402.4z"/>
	<path d="M299.1,376.7c-1.1,2.6-3.5,3.5-5.7,4.7C294.3,378.7,297,378,299.1,376.7z"/>
	<path d="M256.7,402.2c-0.3,0.8-0.3,1.9-1.5,1.7c-0.8-0.1-1.9-0.2-1.9-1.4c0-0.9,0.2-2.1,1.6-1.9C255.7,400.8,256.7,401,256.7,402.2
		z"/>
</g>
<g>
	<path d="M178.6,374.5c-0.7,5.1-1.4,9.9-2,14.8c-0.2,1.8-0.8,3.9,1.6,4.8c2.2,0.8,3.6-0.3,4.7-2.1c0.3-0.4,0.8-1,1.2-1
		c4.5-0.3,4.2-3.7,4.5-6.8c0.3-2.7-0.5-5.7,1.9-8.5c0.3,4.8-0.7,9,0.2,13.3c0.6-2.8,1.5-5.2,4.4-6.2c1.7-0.6,3.2,0.2,4.6,1.8
		c-1.5,0.1-2.7,0-3.8,0.4c-1.2,0.4-3.3,0.4-2.6,2.6c0.6,1.9,1.8,3.5,4.1,3c1.7-0.4,3.2-1.4,4.8-2.1c-1.1,4.5-7.9,6.8-11.9,4
		c-0.5-0.3-0.7-1.4-1.5-0.9c-1,0.6-0.2,1.3,0.1,2c0.8,1.9,0.4,3.5-1.2,4.7c-1.7,1.3-3.3,0.2-4.4-1c-1.1-1.1-1.7-1.4-3.1-0.4
		c-2.2,1.4-5.2-0.1-5.2-2.6c0.1-6.5,1-13,3-19.2C177.8,374.9,178.1,374.8,178.6,374.5z"/>
	<path d="M203.9,389.3c-1.1,4-3.1,7.5,0.6,10.1c2.6,1.8,7.4,0.6,11.4-2.8c-1.5-1.2-3.3-1-4.9-1.5c-0.7-0.2-1.7,0-1.8-1.1
		c0-1,0.7-1.5,1.7-1.7c0.4-0.1,0.9-0.2,1.3-0.3c2.7-0.4,3.2-1.7,1.5-3.8c-1-1.3-1.8-2.5-0.5-4.1c1.5,0.9,2.2,2.2,2.5,3.7
		c0.6,2.5-1.1,5.4,1.6,7.6c0.6,0.5,0,2.4-0.9,3.3c-2.8,2.5-5.9,4.4-9.8,4.4c-3,0-5-1.6-5.6-4.7C200.6,395.3,201.3,392.5,203.9,389.3
		z"/>
	<path d="M221.7,394.8c0.1,0,0.2,0,0.3,0c1.6-0.5,4.2,0,4.6-1.7c0.3-1.5-1.5-3.2-3.2-3.8c-1.6-0.6-1.9-1.4-1.1-2.6
		c0.9-1.3,2-0.5,2.8,0.2c1.8,1.6,3.1,3.4,3.1,5.9c0,3.1-5.1,6.1-7.8,4.7c-1-0.5-0.9-1.4-0.7-2.3C219.9,393.6,221,395,221.7,394.8z"
		/>
	<path d="M219.6,400c4.1,1.8,7.4,1.2,10.5-1c1.7-1.2,2.9-2.5,1.4-4.6c-0.8-1.2-1-2.4,0.1-3.6c3,3.7,2.6,7.3-1.2,10.5
		C226.6,404.4,223.5,404.2,219.6,400z"/>
	<path d="M201,382.3c1.8-1.1,2.8-1.7,3.8-2.3c-0.8-1.5-2.4-0.3-3.4-1.3c0.7-2.4,2.5-2.4,4.4-2c0.7,0.2,1.6,0.3,1.5,1.4
		C207.3,379.8,204.5,381.9,201,382.3z"/>
	<path d="M219.1,384.1c0.7-1.3,2.5-1,3.1-2.4c-0.9-1.2-2.4-0.1-3.3-1c0.8-2.6,2.7-2.5,4.7-2c0.7,0.2,1.7,0.5,1.2,1.5
		C223.7,382.5,222.3,384.6,219.1,384.1z"/>
	<path d="M214.1,402.6c1.4,1.4,2.3,0.7,3.3-0.7c0.6-0.8,1.4-0.1,2,0.3c0.5,0.3,0.7,0.9,0.4,1.4c-0.3,0.6-0.7,1.8-1.5,1.4
		c-1.6-0.8-2.5-0.3-3.6,1c-0.6,0.8-1.4-0.1-2-0.5c-0.7-0.4-0.7-1-0.3-1.7C212.7,403.2,212.9,402.3,214.1,402.6z"/>
	<path d="M198.4,397.6c-2,2.7-5.2,3.2-8,4.4C192.2,399.1,195.4,398.5,198.4,397.6z"/>
	<path d="M186.9,377.6c-1.8,2.2-4.3,2.7-6.9,2.9C181.8,378.4,184.4,378,186.9,377.6z"/>
	<path d="M187.7,374.9c-1.9,2-4.4,2.3-6.8,2.6C182.7,375.3,185.2,375.1,187.7,374.9z"/>
	<path d="M233,403.5c-1.4,2.4-4,2.7-6.3,3.5C228,404.4,230.7,404.2,233,403.5z"/>
	<path d="M211.7,378c0.8,0.4,1.9,0.6,1.9,1.6c0,0.9-0.4,2.1-1.7,2c-0.8-0.1-1.9-0.5-1.8-1.6C210.3,379.1,210.7,378.2,211.7,378z"/>
	<path d="M231.9,384c-0.3,1-0.6,2-1.6,2c-0.9,0.1-1.9-0.6-1.9-1.5c0-0.9,0.3-2.1,1.6-2.1C230.9,382.5,231.6,383.3,231.9,384z"/>
</g>
</svg>
