<svg width="256" height="256" viewBox="0 0 256 256" fill="none" xmlns="http://www.w3.org/2000/svg">
<path d="M101.749 107.115C104.368 107.115 106.651 106.78 108.464 106.242L109.74 110.607C108.061 111.077 106.248 111.413 104.032 111.547V119.942H99.4657V111.547C97.2496 111.413 95.4365 111.077 93.7577 110.607L95.0336 106.242C96.8467 106.78 99.1971 107.115 101.749 107.115ZM158.896 104.832C171.79 114.569 180.923 130.888 183.004 148.482C185.22 166.949 179.58 184.274 167.089 197.235C161.247 203.346 150.905 212.143 134.99 219.731C134.587 219.933 134.117 220 133.647 220C133.244 220 132.774 219.933 132.371 219.731C129.416 218.388 126.596 217.045 123.909 215.635C115.784 211.472 108.733 206.972 102.958 202.406L101.95 201.533C101.816 201.533 101.749 201.533 101.615 201.533C96.8467 201.533 94.2277 200.123 92.146 198.914C90.3328 197.907 88.9226 197.101 85.7664 197.101C85.2292 197.101 84.692 197.101 84.2219 197.168V197.034V196.899V190.923V190.788V190.654C84.692 190.654 85.2292 190.587 85.7664 190.587C90.5343 190.587 93.1533 191.997 95.235 193.206C97.0482 194.213 98.4584 195.019 101.615 195.019C104.771 195.019 106.181 194.213 107.994 193.206C110.076 192.064 112.695 190.587 117.463 190.587C122.231 190.587 124.85 191.997 126.931 193.206C128.745 194.213 130.155 195.019 133.311 195.019H133.982V201.399H133.311C128.543 201.399 125.924 199.988 123.842 198.78C122.029 197.772 120.619 196.966 117.463 196.966C114.307 196.966 112.896 197.772 111.083 198.78C110.613 199.048 110.143 199.317 109.606 199.585C114.508 203.212 120.216 206.704 126.73 209.994C128.946 211.136 131.229 212.21 133.647 213.352C140.765 209.86 146.674 206.099 151.442 202.54C149.495 195.086 145.466 188.639 145.264 188.371C142.175 183.603 137.676 179.641 132.371 176.82C126.864 173.933 120.485 172.388 114.038 172.388C105.644 172.388 97.5182 175.007 91.0715 179.708C92.7504 180.245 94.0934 180.917 95.235 181.588C97.0482 182.596 98.4584 183.401 101.615 183.401C104.771 183.401 106.181 182.596 107.994 181.588C110.076 180.447 112.695 178.969 117.463 178.969C122.231 178.969 124.85 180.38 126.931 181.588C128.745 182.596 130.155 183.401 133.311 183.401H133.982V189.781H133.311C130.155 189.781 128.677 188.975 126.864 187.968C124.782 186.826 122.231 185.416 117.53 185.416C112.829 185.416 110.21 186.826 108.196 187.968C106.382 188.975 104.905 189.781 101.749 189.781C98.5927 189.781 97.1153 188.975 95.3022 187.968C93.2204 186.826 90.6686 185.416 85.9679 185.416C81.2672 185.416 78.6482 186.826 76.6336 187.968C75.2234 188.774 74.0146 189.445 72 189.714V189.58V189.647V183.737V183.603V183.469C73.9474 183.2 75.089 182.596 76.4993 181.79C78.3796 180.715 80.6628 179.507 84.5577 179.238C82.3416 174.067 80.9314 168.561 80.3942 162.382C80.1255 159.696 80.1255 157.01 80.3942 154.324C80.5285 153.048 80.5956 151.705 80.7299 150.429C80.8642 148.683 81.0657 146.937 81.2 145.191C81.4015 143.109 81.5358 141.028 81.7372 139.013C81.9387 136.73 82.1401 134.447 82.3416 132.231C82.5431 129.88 82.7445 127.53 82.946 125.18C83.1474 122.896 83.3489 120.546 83.5504 118.263C83.7518 116.114 83.9533 113.965 84.0876 111.749C84.2219 109.869 84.4234 107.988 84.5577 106.108C84.692 104.631 84.8263 103.086 84.9606 101.609C85.0277 100.601 85.162 99.6613 85.2292 98.654C85.2292 98.3183 85.2964 97.9153 85.2964 97.5796L79.3869 91.0657L78.581 88.9839V50.7737H84.7591V54.8701C85.565 55.273 86.2365 55.7431 86.908 56.2131C88.3854 57.2204 89.3927 57.892 91.6088 57.892V36H97.7869V40.9693C99.6 41.5066 100.876 42.3796 102.018 43.0511C103.562 44.0584 104.636 44.7299 107.054 44.7299C109.539 44.7299 110.613 43.9912 112.091 43.0511C113.904 41.8423 116.187 40.365 120.485 40.365C124.782 40.365 127.066 41.8423 128.879 43.0511C130.356 44.0584 131.498 44.7299 133.915 44.7299V50.908C129.618 50.908 127.334 49.4307 125.521 48.2219C124.044 47.2146 122.902 46.5431 120.485 46.5431C118 46.5431 116.926 47.2817 115.448 48.2219C113.635 49.4307 111.285 50.908 107.054 50.908C102.756 50.908 100.473 49.4307 98.6599 48.2219C98.3912 48.0204 98.0555 47.819 97.7869 47.6847V55.3401C99.3985 54.4 101.413 53.527 104.636 53.527C108.8 53.527 111.016 55.0715 112.829 56.2803C114.307 57.2876 115.314 57.9591 117.597 57.9591V64.1372C113.434 64.1372 111.218 62.5927 109.404 61.3839C107.927 60.3766 106.92 59.7051 104.636 59.7051C102.353 59.7051 101.346 60.3766 99.8686 61.3839C99.2642 61.7869 98.5927 62.2569 97.7869 62.6599V73.1358H104.636V67.562H110.815V73.1358H117.664V67.562H123.842V89.0511L123.036 91.1329L118.403 96.2365L119.88 112.958L135.326 103.019C132.035 102.28 128.946 100.803 126.26 98.7212L130.692 94.3562C134.318 96.908 138.683 97.9153 143.115 97.1766C151.241 95.7664 157.083 88.581 157.62 80.254C156.277 81.1942 154.733 81.8657 153.121 82.2686C152.248 82.4701 151.375 82.5372 150.502 82.5372C146.204 82.5372 142.041 80.254 139.691 76.292L144.996 73.1358C146.473 75.5533 149.159 76.8292 151.845 76.2248C153.927 75.7548 155.673 74.2102 156.546 72.1285C154.8 67.4277 151.375 63.6 146.809 61.6526L149.226 56.0117C156.882 59.3022 162.254 66.2861 163.597 74.8146C165.41 86.4321 159.165 97.5124 149.092 101.743C151.442 101.407 153.793 100.669 156.009 99.5942C162.12 96.5723 166.686 91.2672 168.835 84.4847C170.178 80.4555 170.514 76.0905 169.842 71.8599L175.886 70.9197C176.692 76.0905 176.289 81.3956 174.677 86.365C173.267 90.7299 170.984 94.692 168.096 97.9825C169.842 98.9226 171.924 99.0569 173.804 98.1168C175.886 97.1095 177.364 94.8934 177.565 92.4759H183.743C183.474 97.2438 180.721 101.542 176.491 103.623C174.745 104.496 172.931 104.899 171.051 104.899C168.298 104.899 165.612 103.959 163.396 102.213C161.851 103.153 160.441 104.026 158.896 104.832ZM84.6248 73.0686H91.4745V64.0029C88.2511 64.0029 86.2365 63.1299 84.6248 62.1226V73.0686ZM88.9898 92.5431H113.165L117.463 87.7752V79.2467H84.6248V87.7752L88.9898 92.5431ZM102.891 150.563C102.891 142.035 109.874 135.051 118.403 135.051C118.94 135.051 119.41 135.051 119.947 135.118C119.813 135.051 119.612 134.917 119.477 134.782L114.709 130.35C114.239 129.88 113.904 129.276 113.769 128.604L112.292 119.404C112.091 118.128 112.695 116.92 113.769 116.248L113.836 116.181L112.292 98.7212H91.273C91.273 98.9898 91.2058 99.2584 91.2058 99.4599C91.1387 100.333 91.0715 101.206 90.9372 102.146C90.8029 103.556 90.6686 104.966 90.5343 106.377C90.4 108.19 90.1985 110.003 90.0642 111.883C89.8628 114.032 89.6613 116.114 89.527 118.263C89.3255 120.546 89.1241 122.829 88.9226 125.112C88.7212 127.463 88.5197 129.813 88.3183 132.096C88.1168 134.38 87.9153 136.663 87.7139 138.879C87.5124 140.961 87.3781 143.042 87.1766 145.124C87.0423 146.87 86.8409 148.683 86.7066 150.429C86.5723 151.772 86.438 153.115 86.3708 154.458C86.1693 156.943 86.1022 159.361 86.3708 161.845C86.7737 166.21 87.5796 170.172 88.9226 173.933C93.1533 171.112 97.854 169.031 102.891 167.822V150.563ZM127.804 150.563C127.804 145.393 123.574 141.162 118.403 141.162C113.232 141.162 109.001 145.393 109.001 150.563V166.815C110.68 166.613 112.292 166.546 113.971 166.546C118.672 166.546 123.305 167.285 127.737 168.628V150.563H127.804ZM122.231 135.454C128.946 137.133 133.915 143.244 133.915 150.496V158.555H135.796C142.981 158.555 148.891 152.309 148.891 144.654C148.891 138.677 144.861 132.634 135.796 132.634C132.371 132.634 130.893 132.768 122.432 135.387C122.432 135.454 122.298 135.454 122.231 135.454ZM162.657 193.004C173.804 181.387 178.908 165.874 176.893 149.22C174.812 131.962 165.41 116.114 152.382 107.787C152.248 107.72 151.98 107.518 151.644 107.384C149.629 107.787 147.615 108.055 145.533 108.055C143.518 108.055 141.437 107.854 139.422 107.384L126.394 115.845C126.327 115.845 126.327 115.912 126.26 115.912L118.672 120.345L119.679 126.455L122.365 128.94C129.886 126.59 131.968 126.388 135.863 126.388C152.92 126.388 165.813 139.08 165.813 155.869H159.635C159.635 150.362 157.956 145.326 154.8 141.296C155.001 142.371 155.069 143.445 155.069 144.587C155.069 155.667 146.473 164.666 135.863 164.666H133.982V170.911C134.453 171.112 134.855 171.314 135.258 171.582C141.504 174.873 146.742 179.574 150.435 185.215C150.636 185.55 154.263 191.258 156.613 198.578C159.031 196.631 161.045 194.683 162.657 193.004Z" fill="#00A73C"/>
</svg>
